<?xml version="1.0" standalone="no"?>
<!DOCTYPE svg PUBLIC "-//W3C//DTD SVG 1.1//EN" "http://www.w3.org/Graphics/SVG/1.1/DTD/svg11.dtd" >
<!--
2013-9-30: Created.
-->
<svg>
<metadata>
Created by iconfont
</metadata>
<defs>

<font id="icon" horiz-adv-x="1024" >
  <font-face
    font-family="icon"
    font-weight="500"
    font-stretch="normal"
    units-per-em="1024"
    ascent="896"
    descent="-128"
  />
    <missing-glyph />
    
    <glyph glyph-name="location" unicode="&#58904;" d="M512 890.12788541c-204.67762093 0-370.72647095-134.80766738-372.00615764-338.94012499 0-8.15408526 0.00150678-18.95636252 0.00150677-33.08207102 0-235.23403613 372.00465087-644.30531673 372.00465087-644.30531674s372.00615764 416.60740313 372.00615764 635.15495668c0 17.3330814 0.00602858 7.03421674 0.00602858 7.03421671l0.02562398 28.84224753C884.0378102 750.29663959 717.47045332 890.12788541 512 890.12788541zM836.53865188 513.04141481c0 0-0.0045218 8.98456492-0.0045218-6.13741842 0-190.65787115-324.53262185-554.09943686-324.53262183-554.09943686S187.46737815 309.6716129 187.46737815 514.88625791c0 12.32156007 0 21.74472863-0.00150678 28.85882793-0.0045218-0.69030847-0.02562399-1.37308159-0.02562398-2.06489684 0 0 0.0211022 46.61845435 0.02562398 2.06489684 1.11539239 178.08158976 145.97629829 295.68730334 324.53412863 295.68730334 179.24967651 0 324.55975261-121.98721504 324.55975261-301.229368L836.53865188 513.04141481zM139.96369658 548.81991079c0 0.79430676 0.02562399 1.57655641 0.03014578 2.36784963C139.98781378 602.2570484400001 139.96369658 548.81991079 139.96369658 548.81991079zM512.01507215 721.66841725c-88.7084077 0-160.62110573-71.90968151-160.62110573-160.6143643s71.91269949-160.61436429 160.62110573-160.61436427 160.62110573 71.90968151 160.62110575 160.61436427S600.72347987 721.66841725 512.01507215 721.66841725zM512.01507215 445.6564224c-63.73566356 0-115.40247343 51.66464175-115.40247342 115.39762908 0 63.73298878 51.66680988 115.39762908 115.40247342 115.39762908s115.40247343-51.66464175 115.40247343-115.39762908C627.41754558 497.32106418 575.7507357 445.6564224 512.01507215 445.6564224z"  horiz-adv-x="1024" />

    
    <glyph glyph-name="phone" unicode="&#59053;" d="M717.72292 829.209828L310.008055 829.209828c-48.50676 0-87.971587-39.534412-87.971587-88.1302l0-48.489364 0-583.991638 0-78.821183c0-48.52518 39.463804-87.986937 87.971587-87.986937l407.714865 0c48.594765 0 88.1302 39.461757 88.1302 87.986937l0 78.821183L805.85312 692.5902639999999l0 48.489364C805.85312 789.674393 766.317685 829.209828 717.72292 829.209828M276.401656 638.227122l475.086276 0L751.487931 162.961768 276.401656 162.961768 276.401656 638.227122zM751.487931 29.77744299999995c0-18.545378-15.148002-33.622772-33.765011-33.622772L310.008055-3.8453289999999924c-18.527982 0-33.606399 15.077394-33.606399 33.622772l0 78.821183 475.086276 0L751.487931 29.77744299999995zM276.401656 692.5902639999999l0 48.489364c0 18.61701 15.078417 33.766035 33.606399 33.766035l407.714865 0c18.61701 0 33.765011-15.149025 33.765011-33.766035l0-48.489364L276.401656 692.5902639999999zM513.963213 2.9146319999999832c27.323299 0 49.480948 22.155603 49.480948 49.514717 0 27.324322-22.156626 49.479925-49.480948 49.479925-27.359115 0-49.498344-22.154579-49.498344-49.479925C464.464869 25.070234000000028 486.603075 2.9146319999999832 513.963213 2.9146319999999832M546.667056 742.248244l-65.426105 0c-6.813173 0-12.33391-5.52176-12.33391-12.317537 0-6.830569 5.520737-12.352329 12.33391-12.352329l65.426105 0c6.795776 0 12.351306 5.52176 12.351306 12.352329C559.018362 736.726483 553.461809 742.248244 546.667056 742.248244"  horiz-adv-x="1024" />

    
    <glyph glyph-name="feedback" unicode="&#58916;" d="M511.91602417-56.61992577000001c-136.04045722 0-272.08091582 0-408.12137304 0-23.17726271 0-31.74277298 8.56551028-31.74277298 31.91072465 0 183.06678791 0 366.13357722-0.16795166 549.20036514 0 8.3975586 2.85517009 11.92453401 9.90911948 15.61945969 32.07867632 16.96306889 63.82144931 34.93384641 95.73217394 52.06486697 5.37443823 2.85517009 6.71804743 6.38214548 6.55009579 11.924534-0.16795167 57.6072555-0.16795167 115.38246265-0.16795168 172.98971815 0 22.16955545 8.73346195 30.90301741 31.07096907 30.90301738 197.84649201 0 395.69298541 0 593.70742911 0 22.67340908 0 31.23891935-8.56551028 31.23891935-31.40687103 0-57.10340187 0.16795167-114.20680373-0.16795167-171.31020557 0-6.71804743 2.01541451-10.58092479 7.89370498-13.77199684 32.41457827-18.13872782 64.66120489-36.61335758 97.24373484-54.7520854 4.87058461-2.68721842 7.22190107-5.54238851 7.22190106-11.42068038-0.16795167-184.41039852-0.16795167-368.82079564-0.16795168-553.39914582 0-18.81053172-9.57321755-28.38374926-28.38374926-28.38374927C786.34825645-56.78787743999999 649.13214031-56.61992577000001 511.91602417-56.61992577000001zM902.40252301 449.41698602c-3.86287734-2.18336479-6.55009578-3.69492567-9.23731558-5.20648656-120.08509559-69.86769146-240.33814145-139.39948094-360.25528536-209.77102602-14.94765575-8.73346195-27.04014005-8.56551028-41.81984414 0-119.9171439 70.20359478-240.17019117 139.90333457-360.25528536 209.77102602-2.68721842 1.51156089-5.54238851 3.02312176-8.90141225 4.8705846 0-152.83557583 0-304.15959075 0-455.81950904 260.32433211 0 520.14481059 0 780.63709436 0C902.40252301 145.08944358999997 902.40252301 296.41345853999997 902.40252301 449.41698602zM511.91602417 758.78306334c-85.31920083 0-170.63840169 0-256.1255528 0-20.99389792 0-22.84136075-1.84746284-22.84136075-23.17726271 0-94.89241837 0-189.78483536-0.16795168-284.67725372 0-6.55009578 1.51156089-10.41297312 7.55780303-13.93994852 88.17437094-50.88920805 176.1807902-102.11431943 264.01925778-153.33942945 5.7103402-3.35902372 9.57321755-3.19107205 15.11560605 0.16795167 87.83846758 51.39306167 175.84488823 102.45022139 264.01925779 153.50738113 5.54238851 3.19107205 7.55780302 6.71804743 7.55780303 13.10019153-0.16795167 94.89241837-0.16795167 189.78483536-0.16795167 284.67725374 0 22.16955545-1.51156089 23.68111633-23.849068 23.68111633C682.05057221 758.78306334 597.06727333 758.78306334 511.91602417 758.78306334zM183.57146346 538.7670145c-20.15414233-11.75658234-38.79672377-22.67340908-58.78291441-34.09408947 19.98619065-11.58863204 38.79672377-22.50545878 58.78291441-34.09408944C183.57146346 494.09200026 183.57146346 515.5897517999999 183.57146346 538.7670145zM899.21145095 504.67292503c-19.98619065 11.58863204-38.79672377 22.50545878-58.27906076 33.92613918 0-23.00931242 0-44.8429659 0-67.68432665C860.58267887 482.33541653 879.22526032 493.08429299 899.21145095 504.67292503zM511.58012221 620.22333798c-56.7674999 0-113.70295009 0-170.47045 0-17.80282586 0-29.39145652 13.77199683-25.69653084 30.23121348 2.18336479 10.07707116 10.07707116 17.29897223 20.32209261 18.47462978 2.68721842 0.33590197 5.54238851 0.33590197 8.39755861 0.33590195 112.02343892 0 223.87892619 0 335.90236373 0 15.61945969 0 25.02472554-5.7103402 28.38374927-17.29897222 4.87058461-16.45921526-6.71804743-31.57482269-24.52087192-31.74277299-25.52857918-0.16795167-50.88920805 0-76.41778723 0C575.40157151 620.22333798 543.49084686 620.22333798 511.58012221 620.22333798zM463.37813259 531.20921146c40.30828325 0 80.61656791 0.16795167 120.7568995 0 16.62716693 0 27.04014005-11.58863204 25.52857916-27.20809172-1.34360921-12.76428959-11.42068037-21.49775153-25.36062889-21.66570182-35.26974837-0.16795167-70.53949674 0-105.64129343 0-46.18657513 0-92.20519856 0-138.39177369 0-12.93224125 0-22.33750711 7.55780302-24.85677526 19.48233702-2.35131647 11.58863204 3.19107205 23.17726271 14.1078988 27.37604202 4.53468126 1.67951117 9.74116921 2.01541451 14.77970408 2.0154145C383.93722361 531.37716176 423.57370295 531.20921146 463.37813259 531.20921146z"  horiz-adv-x="1024" />

    
    <glyph glyph-name="map" unicode="&#58898;" d="M288 576c-17.688 0-32-14.344-32-32l0-320c0-17.688 14.313-32 32-32s32 14.313 32 32L320 544C320 561.656 305.688 576 288 576zM544 480c-17.688 0-32-14.344-32-32l0-192c0-17.688 14.313-32 32-32s32 14.313 32 32L576 448C576 465.656 561.688 480 544 480zM768 896 512 704 256 800 0 640l0-768 256 160 256-96 256 192 256-192L1024 704 768 896zM960 48 768 192 512 0l-256 96L64-24 64 616l192 120 256-96L768 832l192-144L960 48zM768 352c0-17.688 14.313-32 32-32s32 14.313 32 32L832 608c0 17.656-14.313 32-32 32s-32-14.344-32-32L768 352z"  horiz-adv-x="1024" />

    
    <glyph glyph-name="key" unicode="&#59079;" d="M774.919842 134.92490299999997c0-145.205342-117.716398-262.923005-262.92174-262.923005C366.75923-127.99810200000002 249.073831-10.280439000000001 249.073831 134.92490299999997c0 131.012643 95.96299 239.375424 221.417238 259.332127L470.491069 868.305448C470.491069 883.603373 482.852901 896 498.184356 896c15.29919 0 27.661022-12.396627 27.661022-27.694552l0-55.354309 138.403804 0c15.297925 0 27.661022-12.363097 27.661022-27.659757 0-15.297925-12.327037-27.694552-27.661022-27.694552L525.844113 757.5968290000001l0-83.013434 138.403804 0c15.297925 0 27.661022-12.396627 27.661022-27.694552 0-15.29666-12.327037-27.661655-27.661022-27.661655L525.844113 619.2271880000001l0-222.106818C664.558544 389.872186 774.919842 275.43224299999997 774.919842 134.92490299999997zM304.428141 134.92490299999997c0-114.644287 92.890879-207.572492 207.569961-207.572492 114.643022 0 207.603491 92.892144 207.603491 207.572492 0 114.574696-92.925674 207.568696-207.603491 207.568696C397.31902 342.459437 304.428141 249.498967 304.428141 134.92490299999997z"  horiz-adv-x="1024" />

    
    <glyph glyph-name="about" unicode="&#58954;" d="M512.007155 896C229.229992 896 0.000329 666.770337 0.000329 383.99317399999995s229.229663-511.992516 512.006826-511.992516a509.631389 509.631389 0 0 1 291.148431 90.781758l-0.515155 0.200338a36.833582 36.833582 0 1 1-50.943105 52.803387v0.171719a437.252112 437.252112 0 0 0-238.974678-70.633474c-242.638003 0-439.312732 196.703349-439.312732 439.312732s196.689039 439.312732 439.312732 439.312732 439.312732-196.689039 439.312732-439.312732A437.395211 437.395211 0 0 0 862.884946 119.40384500000005a36.833582 36.833582 0 1 1 49.140063-54.892627 0.386366 0.386366 0 0 0 0-0.071549l0.286197 0.357746a37.205639 37.205639 0 0 1 7.512677 9.687776 509.702938 509.702938 0 0 1 104.161478 309.522293C1023.999671 666.770337 794.770008 896 512.007155 896zM682.895515 586.907003a80.407109 80.407109 0 1 1-80.33556-80.392799A80.464348 80.464348 0 0 1 682.895515 586.907003zM567.729754 477.851552c-12.692847 10.675156-26.172736 16.069974-40.067611 16.069974-40.067611 0-79.21939-45.562597-115.537818-94.817139a9.401579 9.401579 0 0 1 13.107833-13.165072c19.57589 14.309861 44.589527 29.564173 56.881697 33.513695-7.269409-20.248453-36.246878-78.003052-61.904458-129.132186-30.165187-60.101416-48.653527-97.307055-51.658598-108.211168-4.550536-16.642368-2.618705-43.530597 12.378029-63.163727 11.261861-14.796396 27.83268-22.59527 47.852175-22.59527 31.86806 0 72.107389 19.661749 119.616128 58.470092a9.401579 9.401579 0 0 1-7.784564 16.499269c-0.243268 0-49.970035-10.503438-59.357303-3.07662-2.260958 1.788733-3.019381 17.873016 42.929583 96.648801 45.519668 77.974432 91.5688 172.662783 43.544907 212.959351z"  horiz-adv-x="1024" />

    
    <glyph glyph-name="clock" unicode="&#58880;" d="M511.811 864.202c-265.87 0-481.415-215.536-481.415-481.411 0-265.891 215.545-481.42 481.415-481.42 265.891 0 481.42 215.53 481.42 481.42 0 265.875-215.536 481.411-481.42 481.411v0zM511.811-20.863000000000056c-222.935 0-403.649 180.711-403.649 403.655 0 222.935 180.716 403.649 403.649 403.649 222.939 0 403.655-180.716 403.655-403.649-0.001-222.945-180.717-403.655-403.655-403.655v0zM511.811-20.863000000000056zM511.811 765.461c-211.342 0-382.669-171.318-382.669-382.67 0-211.355 171.328-382.679 382.669-382.679 211.355 0 382.679 171.323 382.679 382.679 0 211.351-171.323 382.67-382.679 382.67v0zM775.168 563.405l20.173-34.191-63.741-37.6-20.169 34.196 63.734 37.596zM653.174 676.871l35.411-17.996-33.538-65.963-35.385 17.985 33.515 65.972zM202.221 398.469h73.988v-39.707h-73.988v39.707zM233.917 197.399l-14.97 36.763 68.529 27.898 14.985-36.767-68.543-27.892zM287.897 486.195l-63.734 37.597 20.176 34.201 63.734-37.6-20.176-34.196zM368.097 676.8779999999999l33.531-65.978-35.401-17.989-33.535 65.972 35.404 17.996zM376.208 78.55899999999997l-35.401 17.996 33.519 65.957 35.401-17.989-33.519-65.963zM530.244 59.182000000000016h-40.162v66.169h40.162v-66.169zM647.726 78.57899999999995l-33.531 65.957 35.395 17.996 33.535-65.952-35.401-18zM490.08 353.34900000000005l12.627 332.066 41.518-302.629 232.812-161.182-286.958 131.745zM749.06 358.76300000000003v39.707h73.988v-39.707h-73.988zM749.06 358.76300000000003z"  horiz-adv-x="1024" />

    
    <glyph glyph-name="exclamation" unicode="&#58970;" d="M512 576a51.2 51.2 0 0 0 51.2-51.2v-136.192a51.2 51.2 0 0 0-102.4 0V524.8A51.2 51.2 0 0 0 512 576zM460.8 288l102.4 0 0-102.4-102.4 0 0 102.4ZM198.4 233.15200000000004a49.984 49.984 0 0 0-90.048-43.328 448 448 0 1 0 216.128-212.736 49.984 49.984 0 0 0 41.856 90.816 348.096 348.096 0 0 1 418.752 531.84A347.968 347.968 0 0 1 198.4 233.08799999999997z"  horiz-adv-x="1024" />

    
    <glyph glyph-name="cart" unicode="&#58905;" d="M1008.081455 691.037091a37.934545 37.934545 0 0 1-30.091637 14.848H206.336L172.916364 865.28A37.888 37.888 0 0 1 135.842909 895.418182H37.934545a37.888 37.888 0 1 1 0-75.822546h67.141819l144.523636-690.036363a37.888 37.888 0 0 1 37.073455-30.138182h547.653818a37.888 37.888 0 1 1 0 75.799273H317.44l-23.784727 113.733818h592.756363c17.152 0 32.186182 11.496727 36.608 28.090182l91.578182 341.131636a37.864727 37.864727 0 0 1-6.516363 32.861091z m-150.714182-326.283636H277.76l-55.552 265.30909H928.581818l-71.214545-265.30909zM358.4 61.509818c-51.316364 0-93.090909-41.728-93.090909-93.090909 0-51.339636 41.774545-93.090909 93.090909-93.090909 51.362909 0 93.090909 41.751273 93.090909 93.090909 0 51.362909-41.728 93.090909-93.090909 93.090909z m1.698909-132.654545a37.934545 37.934545 0 0 0 0 75.799272 37.934545 37.934545 0 0 0 0-75.799272z m393.658182 132.654545a94.859636 94.859636 0 0 1-94.766546-94.743273A94.859636 94.859636 0 0 1 753.757091-128a94.859636 94.859636 0 0 1 94.766545 94.766545 94.859636 94.859636 0 0 1-94.766545 94.743273z m0-132.654545a37.934545 37.934545 0 0 0 0 75.799272 37.934545 37.934545 0 0 0 0-75.799272z"  horiz-adv-x="1024" />

    
    <glyph glyph-name="eye-open" unicode="&#58942;" d="M945.122535 406.867824C826.363757 553.5679769999999 693.632757 630.412133 539.945469 630.412133c-150.193721 0-282.920628-76.844156-405.172973-223.544309-10.477632-13.970176-10.477632-31.434943 0-45.409213 118.758778-146.701177 251.488755-223.544309 405.172973-223.544309 150.193721 0 282.923698 76.843132 405.177066 223.544309 6.983041 17.463744 6.983041 34.932604 0 45.409213zM539.945469 214.757434c-118.755708 0-230.52735 59.380412-331.823408 174.645623 101.296057 115.266233 213.0677 174.645622 331.823408 174.645622 118.759801 0 230.531444-59.379389 331.827501-174.645622-101.296057-118.758778-213.0677-174.645622-331.827501-174.645623z m0 0M539.945469 529.117099c-76.840062 0-136.219451-62.869886-136.219451-136.219452 0-73.350588 62.868863-136.224568 136.219451-136.224567 76.844156 0 136.223544 62.873979 136.223544 136.224567 0 73.349565-59.379389 136.219451-136.223544 136.219452z m0-206.080566c-38.422078 0-69.857021 31.439036-69.857021 69.861114 0 38.421055 31.434943 69.855998 69.857021 69.855998s69.861114-31.434943 69.861114-69.855998c0-38.422078-31.439036-69.861114-69.861114-69.861114z m0 0"  horiz-adv-x="1024" />

    
    <glyph glyph-name="edit" unicode="&#59151;" d="M874-74H122c-19.9 0-36 16.1-36 36V730c0 19.9 16.1 36 36 36h355.9c19.9 0 36-16.1 36-36s-16.1-36-36-36H158v-696h680V375.5c0 19.9 16.1 36 36 36s36-16.1 36-36V-38c0-19.9-16.1-36-36-36zM576.4 223.5c-9.1 0-18.2 3.4-25.2 10.3l-52.3 51.4c-14.2 13.9-14.4 36.7-0.5 50.9 13.9 14.2 36.7 14.4 50.9 0.5l52.3-51.4c14.2-13.9 14.4-36.7 0.5-50.9-7.1-7.2-16.4-10.8-25.7-10.8zM367.7 107.6c-8.2 0-16.2 2.8-22.8 8.1-10 8.2-14.9 21-12.8 33.8l36.1 219c0.9 5.7 3.2 11.1 6.7 15.7L698.1 817.1c5.8 7.7 14.4 12.8 24 14.1 9.6 1.3 19.3-1.3 26.9-7.2l176.9-137.4c15.5-12 18.5-34.2 6.8-50L609.6 203.7c-4.1-5.5-9.6-9.6-16-12.1l-213-81.6c-4.2-1.6-8.5-2.4-12.9-2.4z m70.2 240.6l-24.5-148.5L558 255.1l295.7 396.2-120 93.2-295.8-396.3z"  horiz-adv-x="1024" />

    
    <glyph glyph-name="coupon" unicode="&#58982;" d="M923.0336 560.37376l78.90944-78.90944c15.99488-15.99488 17.18272-40.7552 2.64192-55.296L477.98272-100.43391999999994c-14.5408-14.5408-39.30112-13.37344-55.296 2.62144l-78.90944 78.92992a61.44 61.44 0 0 0-17.96096 41.24672c-2.02752 56.70912-14.9504 96.95232-38.72768 120.75008-23.79776 23.79776-64.04096 36.70016-120.75008 38.7072a61.44 61.44 0 0 0-41.24672 17.98144l-78.92992 78.90944c-15.9744 15.99488-17.16224 40.7552-2.62144 55.296L570.14272 860.61056c14.5408 14.5408 39.30112 13.35296 55.296-2.64192l78.90944-78.90944a61.44 61.44 0 0 0 17.96096-41.24672c2.02752-56.7296 14.92992-96.9728 38.7072-120.75008 23.79776-23.79776 64.06144-36.70016 120.77056-38.72768a61.44 61.44 0 0 0 41.24672-17.96096zM336.896 392.76544l194.47808-190.21824a30.72 30.72 0 1 1 42.96704 43.9296l-194.47808 190.19776a30.72 30.72 0 0 1-42.96704-43.90912z m184.32 163.84l194.47808-190.21824a30.72 30.72 0 1 1 42.96704 43.9296l-194.47808 190.19776a30.72 30.72 0 0 1-42.96704-43.90912z"  horiz-adv-x="1024" />

    
    <glyph glyph-name="trash" unicode="&#59300;" d="M599.94 150.06600000000003c-15.99 0-29.382 13.391-29.382 29.375V501.28c0 16.058 13.391 28.979 29.382 28.979 16.052 0 29.382-12.92 29.382-28.98v-321.84c0-15.983-13.33-29.374-29.382-29.374z m-175.41 0c-15.99 0-29.38 13.391-29.38 29.375V501.28c0 16.058 13.39 28.979 29.38 28.979 16.06 0 29.383-12.92 29.383-28.98v-321.84c0-15.983-13.324-29.374-29.382-29.374zM891.936 647.31H745.968v58.293c0 48.564-39.171 87.742-87.272 87.742H365.774c-48.033 0-87.204-39.178-87.204-87.742v-58.293H132.072c-16.454 0-29.381-12.92-29.381-29.374 0-15.99 12.927-28.918 29.381-28.918h759.863c16.522 0 29.374 12.927 29.374 28.918 0 16.453-12.852 29.374-29.374 29.374z m-555.542 58.293c0 16.522 13.391 29.381 29.382 29.381h292.922c16.06 0 28.91-12.86 28.91-29.381v-58.293H336.394v58.293zM716.99-25.34400000000005H307.482c-48.503 0-87.674 39.635-87.674 87.735V501.745c0 16.058 13.322 28.917 29.381 28.917 15.991 0 29.382-12.859 29.382-28.917v-439.353c0-16.052 12.92-28.979 28.91-28.979h409.507a28.915 28.915 0 0 1 28.98 28.98V500.413c0 16.059 13.323 29.382 29.381 29.382 15.991 0 29.375-13.323 29.375-29.382v-438.022c0-48.101-39.17-87.736-87.735-87.736z"  horiz-adv-x="1024" />

    
    <glyph glyph-name="booking" unicode="&#59080;" d="M482.255238 9.630476000000044H116.150857a47.469714 47.469714 0 0 0-47.591619 47.299048V486.912h891.440762V712.338286c0 63.707429-52.077714 115.46819-116.150857 115.46819h-89.551238V896h-68.583619v-68.193524H274.285714V896H205.702095v-68.193524H116.150857C52.077714 827.806476 0 776.045714 0 712.338286v-655.408762c0-63.707429 52.077714-115.46819 116.150857-115.468191H482.255238a34.133333 34.133333 0 0 1 34.279619 34.084572 34.133333 34.133333 0 0 1-34.279619 34.084571zM68.559238 712.338286c0 26.087619 21.333333 47.299048 47.591619 47.299047h89.551238v-102.278095h68.583619V759.637333h411.428572v-102.278095h68.583619V759.637333h89.551238c26.258286 0 47.591619-21.211429 47.591619-47.299047v-157.257143H68.583619v157.257143zM171.422476 384.633905h240.006095v-68.169143H171.422476zM171.422476 180.10209499999996h240.006095v-68.193524H171.422476zM857.136762 282.35581h-68.559238v-170.447239H960v68.193524h-102.863238zM1016.783238 338.822095a273.091048 273.091048 0 0 1-193.926095 79.896381 272.896 272.896 0 0 1-193.926095-79.896381 269.970286 269.970286 0 0 1-80.359619-192.828952c0-72.850286 28.501333-141.360762 80.359619-192.828953a273.091048 273.091048 0 0 1 193.926095-79.89638c73.289143 0 142.189714 28.355048 193.926095 79.89638A269.970286 269.970286 0 0 1 1097.142857 146.04190500000004c0 72.850286-28.501333 141.360762-80.359619 192.804571zM822.857143-58.51428599999997c-113.468952 0-205.726476 91.721143-205.726476 204.556191 0 112.810667 92.257524 204.53181 205.726476 204.531809 113.468952 0 205.726476-91.721143 205.726476-204.55619 0-112.810667-92.257524-204.55619-205.726476-204.556191z"  horiz-adv-x="1097" />

    
    <glyph glyph-name="finish" unicode="&#58901;" d="M504.89834346 236.57990684000004a33.84816416 33.84816416 0 0 0-23.35523291 9.81596777l-164.50207647 165.17903994a33.84816416 33.84816416 0 1 0 46.37198496 46.71046582l141.14684356-141.82380615L871.47395879 684.72959737a33.84816416 33.84816416 0 0 0 46.37198496-47.04894844L527.57661377 246.39587460999996a33.84816416 33.84816416 0 0 0-23.01675117-9.81596778zM955.75588701 458.28538037a31.47879287 31.47879287 0 0 1-30.8018294 25.72460508 31.81727373 31.81727373 0 0 1-31.81727373-31.81727461v-2.36937129a385.86906826 385.86906826 0 1 0-380.79184394 320.54211211 383.83817871 383.83817871 0 0 0 208.16620752-60.92669443 30.8018294 30.8018294 0 0 1 16.58560078-5.41570694 31.81727373 31.81727373 0 0 1 31.81727374 31.81727461 31.14031114 31.14031114 0 0 1-14.55471036 26.06308594 449.50361661 449.50361661 0 1 1 206.81228145-378.42247266 452.21146963 452.21146963 0 0 1-5.41570606 74.80444219z"  horiz-adv-x="1024" />

    
    <glyph glyph-name="scan" unicode="&#59013;" d="M0 603.424V822.848C0 859.424 28.928 896 73.12 896H256s54.848 0 54.848-54.848C310.848 786.272 256 786.272 256 786.272H109.696v-182.848s0-54.848-54.848-54.848S0 603.424 0 603.424z m1024 0V822.848C1024 859.424 995.04 896 950.848 896H768s-54.848 0-54.848-54.848C713.152 786.272 768 786.272 768 786.272h146.272v-182.848s0-54.848 54.848-54.848C1024 548.576 1024 603.424 1024 603.424zM0 164.576v-219.424C0-91.424 28.928-128 73.12-128H256s54.848 0 54.848 54.848C310.848-18.272 256-18.272 256-18.272H109.696v182.848s0 54.848-54.848 54.848S0 164.576 0 164.576z m1024 0v-219.424C1024-91.424 995.04-128 950.848-128H768s-54.848 0-54.848 54.848S768-18.304 768-18.304h146.272v182.848s0 54.848 54.848 54.848C1024 219.424 1024 164.576 1024 164.576zM54.848 457.152h914.304s54.88 0 54.88-54.848-54.88-54.848-54.88-54.848H54.848S0 347.456 0 402.304s54.848 54.848 54.848 54.848z"  horiz-adv-x="1024" />

    
    <glyph glyph-name="order" unicode="&#58978;" d="M493.024 156.448h-151.68c-20.864 0-37.952-17.056-37.952-37.92s17.056-37.952 37.952-37.952h151.68a38.08 38.08 0 0 1 37.952 37.952c0 20.832-17.056 37.92-37.952 37.92z m189.632 189.632H341.344a38.08 38.08 0 0 1-37.952-37.952 38.08 38.08 0 0 1 37.952-37.952h341.312c20.864 0 37.952 17.088 37.952 37.952s-17.088 37.952-37.952 37.952z m0 189.632H341.344a38.08 38.08 0 0 1-37.952-37.952c0-20.832 17.056-37.92 37.952-37.92h341.312c20.864 0 37.952 17.056 37.952 37.92s-17.088 37.952-37.952 37.952z m75.872 284.448h-26.56C716.8 863.776 675.104 896 625.792 896h-227.552C348.896 896 307.2 863.776 292.032 820.16h-26.56c-104.288 0-189.632-85.344-189.632-189.632v-568.896C75.84-42.656 161.184-128 265.472-128h493.056c104.288 0 189.632 85.344 189.632 189.632V630.528c0 104.288-85.344 189.632-189.632 189.632z m-360.32 0h227.552a38.08 38.08 0 0 0 37.952-37.952 38.08 38.08 0 0 0-37.952-37.92h-227.552a38.08 38.08 0 0 0-37.952 37.92 38.08 38.08 0 0 0 37.952 37.952zM872.32 61.632a114.144 114.144 0 0 0-113.792-113.792H265.472a114.144 114.144 0 0 0-113.792 113.792V630.528A114.144 114.144 0 0 0 265.472 744.32h26.56c15.168-43.616 56.864-75.872 106.176-75.872h227.552c49.312 0 91.04 32.256 106.176 75.872h26.56a114.144 114.144 0 0 0 113.792-113.792v-568.896z"  horiz-adv-x="1024" />

    
    <glyph glyph-name="eye-close" unicode="&#58922;" d="M941.677 504.29c9.338 14.006 6.225 32.681-6.225 43.575-14.006 10.894-32.681 7.781-43.575-6.225-1.557-1.556-174.3-205.426-379.728-205.426-199.2 0-379.727 205.426-381.283 206.982-10.895 12.45-31.125 14.006-43.576 3.113-12.45-10.894-14.006-31.125-3.113-43.576 3.113-4.668 40.463-46.687 99.6-93.375l-79.37-82.482c-12.45-12.45-10.893-32.681 1.557-43.575 3.113-6.225 10.894-9.338 18.676-9.338 7.78 0 15.562 3.113 21.787 9.338l85.594 88.706c40.463-28.013 88.707-54.47 141.62-73.144l-32.682-110.495c-4.668-17.118 4.67-34.237 21.788-38.906h9.337c14.006 0 26.457 9.338 29.569 23.344l32.681 110.495c24.9-4.669 51.357-7.782 77.813-7.782s52.913 3.113 77.814 7.782l32.68-108.939c3.114-14.006 17.12-23.343 29.57-23.343 3.113 0 6.225 0 7.782 1.556 17.118 4.67 26.456 21.787 21.788 38.906L649.099 300.41999999999996c52.914 18.676 101.157 45.132 141.62 73.144l84.038-87.15c6.225-6.225 14.006-9.338 21.787-9.338 7.781 0 15.563 3.113 21.787 9.337 12.45 12.451 12.45 31.125 1.557 43.576l-79.37 82.481c63.808 46.689 101.16 91.82 101.16 91.82z"  horiz-adv-x="1024" />

    
    <glyph glyph-name="guide" unicode="&#58926;" d="M512 798.72c14.336 0 24.576-3.072 27.648-5.12l313.344-181.248c12.288-7.168 27.648-33.792 27.648-48.128v-363.52c0-14.336-15.36-40.96-27.648-48.128L539.648-29.696000000000026c-3.072-2.048-13.312-6.144-27.648-6.144s-24.576 3.072-27.648 5.12L169.984 151.55200000000002c-12.288 7.168-27.648 33.792-27.648 48.128V563.2c0 14.336 15.36 40.96 27.648 48.128L484.352 793.6c8.192 4.096 17.408 6.144 27.648 5.12zM512 875.52c-23.552 0-48.128-5.12-65.536-15.36L132.096 677.888c-35.84-20.48-65.536-72.704-65.536-114.688V199.67999999999995c0-41.984 29.696-93.184 65.536-114.688l313.344-181.248c18.432-10.24 41.984-15.36 65.536-15.36 23.552 0 48.128 5.12 65.536 15.36L890.88 86.01599999999996c35.84 20.48 65.536 72.704 65.536 114.688V563.2c0 41.984-29.696 93.184-65.536 114.688L577.536 860.16C559.104 870.4 535.552 875.52 512 875.52zM783.36 566.2719999999999c-7.168 0-13.312-2.048-19.456-5.12l-273.408-194.56c-17.408-11.264-22.528-33.792-12.288-52.224s32.768-24.576 50.176-15.36l273.408 194.56c15.36 9.216 22.528 26.624 17.408 44.032-3.072 16.384-18.432 28.672-35.84 28.672zM240.64 566.2719999999999c-17.408 0-32.768-11.264-36.864-28.672s3.072-34.816 17.408-44.032l272.384-193.536c18.432-10.24 40.96-4.096 51.2 14.336 10.24 18.432 4.096 41.984-14.336 53.248L259.072 560.1279999999999c-6.144 4.096-12.288 6.144-18.432 6.144zM512 372.736c-10.24 0-20.48-4.096-27.648-11.264-7.168-7.168-11.264-16.384-11.264-26.624v-253.952c0-20.48 17.408-37.888 38.912-37.888s38.912 16.384 38.912 37.888V334.84799999999996c0 20.48-17.408 37.888-38.912 37.888z"  horiz-adv-x="1024" />

    
    <glyph glyph-name="person" unicode="&#58881;" d="M512 299.853707c-164.342056 0-298.073147 133.685942-298.073147 298.027998S347.657944 896 512 896s298.073147-133.77624 298.073147-298.118295-133.708516-298.027998-298.073147-298.027998z m0 547.385463c-137.455876 0-249.289742-111.856441-249.289742-249.357465 0-137.455876 111.833866-249.267168 249.289742-249.267168 137.478451 0 249.312317 111.811292 249.312317 249.267168 0.022574 137.501025-111.833866 249.357466-249.312317 249.357465zM939.71826-127.864553a24.380415 24.380415 0 0 0-24.380415 24.380415c0 112.262781-44.990895 216.534203-126.687859 293.513106a24.335266 24.335266 0 0 0-1.015851 34.426048 24.335266 24.335266 0 0 0 34.471198 1.061c91.562003-86.324728 141.993342-203.170124 141.993342-329.000154a24.380415 24.380415 0 0 0-24.380415-24.380415zM84.28174-127.864553a24.380415 24.380415 0 0 0-24.380415 24.380415c0 249.289742 202.786358 452.098675 452.076101 452.098675a24.380415 24.380415 0 0 0 0-48.76083c-222.403563 0-403.337845-180.956857-403.337846-403.337845a24.335266 24.335266 0 0 0-24.35784-24.380415z"  horiz-adv-x="1024" />

    
    <glyph glyph-name="package" unicode="&#58886;" d="M502.835 357.81500000000005L31.508 565.985c-13.092 9.164-13.092 31.421 1.31 39.277L502.835 808.194c5.237 2.619 11.783 2.619 17.02 0l470.018-202.932c14.402-7.856 15.711-30.113 1.31-39.277l-468.71-208.17c-6.545-2.618-11.782-3.928-19.638 0zM991.182 407.566L857.64 465.173 522.474 315.919c-6.546-2.618-11.783-3.927-20.948 0L166.36 465.173 32.818 407.566c-14.402-7.855-15.711-30.112-1.31-39.277l470.018-208.17c9.165-3.927 13.092-2.618 20.948 0l470.018 208.17c14.401 9.165 13.092 31.422-1.31 39.277zM991.182 208.562L858.95 266.168 522.474 116.91499999999996c-6.546-2.619-11.783-3.928-20.948 0L166.36 266.168 32.818 208.562c-14.402-7.856-15.711-30.113-1.31-39.278l470.018-208.17c9.165-3.927 13.092-2.618 20.948 0l470.018 208.17c14.401 9.165 13.092 31.422-1.31 39.278z"  horiz-adv-x="1024" />

    
    <glyph glyph-name="wallet" unicode="&#59098;" d="M832 597.333333v53.12A96.213333 96.213333 0 0 1 735.786667 746.666667h-66.773334l-10.453333 23.68a32.213333 32.213333 0 0 1-42.666667 15.786666L534.4 746.666667H181.333333A96.213333 96.213333 0 0 1 85.333333 650.666667v-554.666667A117.546667 117.546667 0 0 1 202.666667-21.333333h616.32A119.893333 119.893333 0 0 1 938.666667 98.346667V477.653333A119.68 119.68 0 0 1 832 597.333333z m-96.213333 85.333334A32.426667 32.426667 0 0 0 768 650.453333V597.333333h-32.64l-37.76 85.333334z m-70.4-85.333334H373.76l239.786667 116.693334zM149.333333 650.666667A32 32 0 0 0 181.333333 682.666667h221.44l-175.36-85.333334H181.333333A32 32 0 0 0 149.333333 629.333333v21.333334zM874.666667 256h-96a32 32 0 0 0 0 64H874.666667z m-96 128a96 96 0 0 1 0-192H874.666667v-93.653333A55.68 55.68 0 0 0 818.986667 42.666667H202.666667A53.333333 53.333333 0 0 0 149.333333 96V533.333333h669.653334A55.68 55.68 0 0 0 874.666667 477.653333V384z"  horiz-adv-x="1024" />

    
    <glyph glyph-name="wxpay" unicode="&#58882;" d="M912.810667 674.858667C819.029333 770.645333 674.432 832 512.170667 832 229.461333 832 12.074667 645.461333 0.298667 415.786667c-4.864-94.506667 50.773333-196.992 166.869333-307.498667l-102.357333-172.330667 239.402666 99.370667c89.258667-23.850667 158.549333-35.754667 207.914667-35.754667C794.837333-0.426667 1024 185.898667 1024 415.786667c0 72.96-23.082667 141.568-63.658667 201.216L425.386667 331.52c-15.189333-9.472-28.629333-13.098667-40.362667-10.88s-20.693333 10.069333-26.837333 23.594667L257.664 548.565333c-3.370667 11.050667-1.493333 18.261333 5.632 21.632 10.709333 5.077333 17.408 4.565333 25.941333-2.261333 20.693333-16.597333 138.88-88.362667 186.453334-73.472 16.341333 5.12 71.509333 29.568 167.082666 69.034667l270.08 111.317333z"  horiz-adv-x="1024" />

    


  </font>
</defs>
</svg>
